<svg width="29" height="28" viewBox="0 0 29 28" fill="none" xmlns="http://www.w3.org/2000/svg">
<path d="M2.35979 21.2639L0.279785 19.7599L6.67978 9.51994L10.5198 13.9999L15.6398 5.67994L19.1278 10.8959C18.6371 10.9173 18.1731 10.9759 17.7358 11.0719C17.2985 11.1679 16.8665 11.3013 16.4398 11.4719L15.7358 10.4159L10.8718 18.3199L6.99978 13.8079L2.35979 21.2639ZM26.6158 27.4399L22.6158 23.4399C22.1891 23.7386 21.7145 23.9626 21.1918 24.1119C20.6691 24.2613 20.1305 24.3359 19.5758 24.3359C17.9758 24.3359 16.6158 23.7759 15.4958 22.6559C14.3758 21.5359 13.8158 20.1759 13.8158 18.5759C13.8158 16.9759 14.3758 15.6159 15.4958 14.4959C16.6158 13.3759 17.9758 12.8159 19.5758 12.8159C21.1758 12.8159 22.5358 13.3759 23.6558 14.4959C24.7758 15.6159 25.3358 16.9759 25.3358 18.5759C25.3358 19.1306 25.2611 19.6693 25.1118 20.1919C24.9625 20.7146 24.7385 21.1999 24.4398 21.6479L28.4398 25.6159L26.6158 27.4399ZM19.5758 21.7759C20.4718 21.7759 21.2291 21.4666 21.8478 20.8479C22.4665 20.2293 22.7758 19.4719 22.7758 18.5759C22.7758 17.6799 22.4665 16.9226 21.8478 16.3039C21.2291 15.6853 20.4718 15.3759 19.5758 15.3759C18.6798 15.3759 17.9225 15.6853 17.3038 16.3039C16.6851 16.9226 16.3758 17.6799 16.3758 18.5759C16.3758 19.4719 16.6851 20.2293 17.3038 20.8479C17.9225 21.4666 18.6798 21.7759 19.5758 21.7759ZM22.4238 11.5359C22.0185 11.3653 21.5971 11.2266 21.1598 11.1199C20.7225 11.0133 20.2691 10.9493 19.7998 10.9279L26.3598 0.559937L28.4398 2.06394L22.4238 11.5359Z" fill="#294C73"/>
</svg>
