<svg width="27" height="29" viewBox="0 0 27 29" fill="none" xmlns="http://www.w3.org/2000/svg">
<path d="M1.84006 28.44L5.42406 10.392L3.12006 11.288V15.64H0.560059V9.62404L7.02406 6.87204C7.64273 6.61604 8.27206 6.58938 8.91206 6.79204C9.55206 6.99471 10.0534 7.38404 10.4161 7.96004L11.6961 10.008C12.2721 10.9254 13.0347 11.6667 13.9841 12.232C14.9334 12.7974 16.0054 13.08 17.2001 13.08V15.64C15.7921 15.64 14.4747 15.3467 13.2481 14.76C12.0214 14.1734 10.9921 13.4 10.1601 12.44L9.39206 16.28L12.0801 18.84V28.44H9.52006V20.76L6.83206 18.2L4.52806 28.44H1.84006ZM10.1601 6.04004C9.45606 6.04004 8.85339 5.78938 8.35206 5.28804C7.85073 4.78671 7.60006 4.18404 7.60006 3.48004C7.60006 2.77604 7.85073 2.17338 8.35206 1.67204C8.85339 1.17071 9.45606 0.920044 10.1601 0.920044C10.8641 0.920044 11.4667 1.17071 11.9681 1.67204C12.4694 2.17338 12.7201 2.77604 12.7201 3.48004C12.7201 4.18404 12.4694 4.78671 11.9681 5.28804C11.4667 5.78938 10.8641 6.04004 10.1601 6.04004ZM22.9601 28.44L21.6161 27.096L22.5121 26.2H15.9201V24.28H22.5121L21.6161 23.384L22.9601 22.04L26.1601 25.24L22.9601 28.44ZM19.1201 23L15.9201 19.8L19.1201 16.6L20.4641 17.944L19.5681 18.84H26.1601V20.76H19.5681L20.4641 21.656L19.1201 23Z" fill="#294C73"/>
</svg>
