<svg width="143" height="37" viewBox="0 0 143 37" fill="none" xmlns="http://www.w3.org/2000/svg">
<mask id="path-1-outside-1_0_63" maskUnits="userSpaceOnUse" x="-1" y="-1" width="145" height="39" fill="black">
<rect fill="white" x="-1" y="-1" width="145" height="39"/>
<path d="M9.36 8.32H13.52V12.12H9.36V22.36C9.36 23.32 9.52 23.96 9.84 24.28C10.16 24.6 10.8 24.76 11.76 24.76C12.08 24.76 12.3867 24.7467 12.68 24.72C12.9733 24.6933 13.2533 24.6533 13.52 24.6V29C13.04 29.08 12.5067 29.1333 11.92 29.16C11.3333 29.1867 10.76 29.2 10.2 29.2C9.32 29.2 8.48 29.1333 7.68 29C6.90667 28.8933 6.21333 28.6667 5.6 28.32C5.01333 27.9733 4.54667 27.48 4.2 26.84C3.85333 26.2 3.68 25.36 3.68 24.32V12.12H0.24V8.32H3.68V2.12H9.36V8.32ZM16.2225 8.32H21.6225V12.16H21.7025C21.9692 11.52 22.3292 10.9333 22.7825 10.4C23.2358 9.84 23.7558 9.37333 24.3425 9C24.9292 8.6 25.5558 8.29333 26.2225 8.08C26.8892 7.86667 27.5825 7.76 28.3025 7.76C28.6758 7.76 29.0892 7.82667 29.5425 7.96V13.24C29.2758 13.1867 28.9558 13.1467 28.5825 13.12C28.2092 13.0667 27.8492 13.04 27.5025 13.04C26.4625 13.04 25.5825 13.2133 24.8625 13.56C24.1425 13.9067 23.5558 14.3867 23.1025 15C22.6758 15.5867 22.3692 16.28 22.1825 17.08C21.9958 17.88 21.9025 18.7467 21.9025 19.68V29H16.2225V8.32ZM31.5294 14.68C31.6094 13.3467 31.9427 12.24 32.5294 11.36C33.116 10.48 33.8627 9.77333 34.7694 9.24C35.676 8.70667 36.6894 8.33333 37.8094 8.12C38.956 7.88 40.1027 7.76 41.2494 7.76C42.2894 7.76 43.3427 7.84 44.4094 8C45.476 8.13333 46.4494 8.41333 47.3294 8.84C48.2094 9.26667 48.9294 9.86667 49.4894 10.64C50.0494 11.3867 50.3294 12.3867 50.3294 13.64V24.4C50.3294 25.3333 50.3827 26.2267 50.4894 27.08C50.596 27.9333 50.7827 28.5733 51.0494 29H45.2894C45.1827 28.68 45.0894 28.36 45.0094 28.04C44.956 27.6933 44.916 27.3467 44.8894 27C43.9827 27.9333 42.916 28.5867 41.6894 28.96C40.4627 29.3333 39.2094 29.52 37.9294 29.52C36.9427 29.52 36.0227 29.4 35.1694 29.16C34.316 28.92 33.5694 28.5467 32.9294 28.04C32.2894 27.5333 31.7827 26.8933 31.4094 26.12C31.0627 25.3467 30.8894 24.4267 30.8894 23.36C30.8894 22.1867 31.0894 21.2267 31.4894 20.48C31.916 19.7067 32.4494 19.0933 33.0894 18.64C33.756 18.1867 34.5027 17.8533 35.3294 17.64C36.1827 17.4 37.036 17.2133 37.8894 17.08C38.7427 16.9467 39.5827 16.84 40.4094 16.76C41.236 16.68 41.9694 16.56 42.6094 16.4C43.2494 16.24 43.756 16.0133 44.1294 15.72C44.5027 15.4 44.676 14.9467 44.6494 14.36C44.6494 13.7467 44.5427 13.2667 44.3294 12.92C44.1427 12.5467 43.876 12.2667 43.5294 12.08C43.2094 11.8667 42.8227 11.7333 42.3694 11.68C41.9427 11.6 41.476 11.56 40.9694 11.56C39.8494 11.56 38.9694 11.8 38.3294 12.28C37.6894 12.76 37.316 13.56 37.2094 14.68H31.5294ZM44.6494 18.88C44.4094 19.0933 44.1027 19.2667 43.7294 19.4C43.3827 19.5067 42.996 19.6 42.5694 19.68C42.1694 19.76 41.7427 19.8267 41.2894 19.88C40.836 19.9333 40.3827 20 39.9294 20.08C39.5027 20.16 39.076 20.2667 38.6494 20.4C38.2494 20.5333 37.8894 20.72 37.5694 20.96C37.276 21.1733 37.036 21.4533 36.8494 21.8C36.6627 22.1467 36.5694 22.5867 36.5694 23.12C36.5694 23.6267 36.6627 24.0533 36.8494 24.4C37.036 24.7467 37.2894 25.0267 37.6094 25.24C37.9294 25.4267 38.3027 25.56 38.7294 25.64C39.156 25.72 39.596 25.76 40.0494 25.76C41.1694 25.76 42.036 25.5733 42.6494 25.2C43.2627 24.8267 43.716 24.3867 44.0094 23.88C44.3027 23.3467 44.476 22.8133 44.5294 22.28C44.6094 21.7467 44.6494 21.32 44.6494 21V18.88ZM60.5781 5.12H54.8981V0.439998H60.5781V5.12ZM54.8981 8.32H60.5781V29H54.8981V8.32ZM65.0506 8.32H70.4506V11.2H70.5706C71.2906 10 72.224 9.13333 73.3706 8.6C74.5173 8.04 75.6906 7.76 76.8906 7.76C78.4106 7.76 79.6506 7.97333 80.6106 8.4C81.5973 8.8 82.3706 9.37333 82.9306 10.12C83.4906 10.84 83.8773 11.7333 84.0906 12.8C84.3306 13.84 84.4506 15 84.4506 16.28V29H78.7706V17.32C78.7706 15.6133 78.504 14.3467 77.9706 13.52C77.4373 12.6667 76.4906 12.24 75.1306 12.24C73.584 12.24 72.464 12.7067 71.7706 13.64C71.0773 14.5467 70.7306 16.0533 70.7306 18.16V29H65.0506V8.32ZM94.6016 5.12H88.9216V0.439998H94.6016V5.12ZM88.9216 8.32H94.6016V29H88.9216V8.32ZM99.0741 8.32H104.474V11.2H104.594C105.314 10 106.247 9.13333 107.394 8.6C108.541 8.04 109.714 7.76 110.914 7.76C112.434 7.76 113.674 7.97333 114.634 8.4C115.621 8.8 116.394 9.37333 116.954 10.12C117.514 10.84 117.901 11.7333 118.114 12.8C118.354 13.84 118.474 15 118.474 16.28V29H112.794V17.32C112.794 15.6133 112.527 14.3467 111.994 13.52C111.461 12.6667 110.514 12.24 109.154 12.24C107.607 12.24 106.487 12.7067 105.794 13.64C105.101 14.5467 104.754 16.0533 104.754 18.16V29H99.0741V8.32ZM132.425 24.12C133.225 24.12 133.932 23.96 134.545 23.64C135.158 23.32 135.665 22.8933 136.065 22.36C136.465 21.8267 136.758 21.2267 136.945 20.56C137.158 19.8667 137.265 19.1467 137.265 18.4C137.265 17.5467 137.185 16.7467 137.025 16C136.865 15.2267 136.598 14.5467 136.225 13.96C135.852 13.3733 135.358 12.9067 134.745 12.56C134.132 12.2133 133.358 12.04 132.425 12.04C131.625 12.04 130.932 12.2 130.345 12.52C129.785 12.84 129.305 13.28 128.905 13.84C128.532 14.3733 128.252 15 128.065 15.72C127.905 16.4133 127.825 17.1467 127.825 17.92C127.825 18.6667 127.892 19.4133 128.025 20.16C128.185 20.88 128.438 21.5333 128.785 22.12C129.158 22.7067 129.638 23.1867 130.225 23.56C130.812 23.9333 131.545 24.12 132.425 24.12ZM142.665 27.68C142.665 28.5067 142.545 29.4533 142.305 30.52C142.092 31.5867 141.612 32.5733 140.865 33.48C140.118 34.4133 139.038 35.2 137.625 35.84C136.212 36.48 134.318 36.8 131.945 36.8C130.932 36.8 129.892 36.6667 128.825 36.4C127.785 36.16 126.825 35.7733 125.945 35.24C125.092 34.7067 124.372 34.0133 123.785 33.16C123.225 32.3333 122.905 31.3333 122.825 30.16H128.465C128.732 31.2267 129.252 31.96 130.025 32.36C130.798 32.7867 131.692 33 132.705 33C134.305 33 135.465 32.52 136.185 31.56C136.932 30.6 137.292 29.3867 137.265 27.92V25.2H137.185C136.572 26.2933 135.692 27.1067 134.545 27.64C133.425 28.1467 132.238 28.4 130.985 28.4C129.438 28.4 128.105 28.1333 126.985 27.6C125.865 27.04 124.945 26.2933 124.225 25.36C123.505 24.4 122.972 23.2933 122.625 22.04C122.305 20.76 122.145 19.4133 122.145 18C122.145 16.6667 122.332 15.3867 122.705 14.16C123.105 12.9067 123.678 11.8133 124.425 10.88C125.172 9.92 126.092 9.16 127.185 8.6C128.305 8.04 129.585 7.76 131.025 7.76C132.385 7.76 133.572 8.01333 134.585 8.52C135.625 9.02667 136.492 9.88 137.185 11.08H137.265V8.32H142.665V27.68Z"/>
</mask>
<path d="M9.36 8.32H8.36V9.32H9.36V8.32ZM13.52 8.32H14.52V7.32H13.52V8.32ZM13.52 12.12V13.12H14.52V12.12H13.52ZM9.36 12.12V11.12H8.36V12.12H9.36ZM9.84 24.28L9.13289 24.9871L9.84 24.28ZM12.68 24.72L12.5895 23.7241H12.5895L12.68 24.72ZM13.52 24.6H14.52V23.3802L13.3239 23.6194L13.52 24.6ZM13.52 29L13.6844 29.9864L14.52 29.8471V29H13.52ZM11.92 29.16L11.8746 28.161L11.92 29.16ZM7.68 29L7.8444 28.0136L7.83055 28.0113L7.81664 28.0094L7.68 29ZM5.6 28.32L5.09127 29.1809L5.09956 29.1858L5.10794 29.1906L5.6 28.32ZM4.2 26.84L3.32071 27.3163H3.32071L4.2 26.84ZM3.68 12.12H4.68V11.12H3.68V12.12ZM0.24 12.12H-0.76V13.12H0.24V12.12ZM0.24 8.32V7.32H-0.76V8.32H0.24ZM3.68 8.32V9.32H4.68V8.32H3.68ZM3.68 2.12V1.12H2.68V2.12H3.68ZM9.36 2.12H10.36V1.12H9.36V2.12ZM9.36 9.32H13.52V7.32H9.36V9.32ZM12.52 8.32V12.12H14.52V8.32H12.52ZM13.52 11.12H9.36V13.12H13.52V11.12ZM8.36 12.12V22.36H10.36V12.12H8.36ZM8.36 22.36C8.36 22.8883 8.40328 23.3762 8.50986 23.8025C8.61492 24.2228 8.79902 24.6532 9.13289 24.9871L10.5471 23.5729C10.561 23.5868 10.5051 23.5372 10.4501 23.3175C10.3967 23.1038 10.36 22.7917 10.36 22.36H8.36ZM9.13289 24.9871C9.46676 25.321 9.89722 25.5051 10.3175 25.6101C10.7438 25.7167 11.2317 25.76 11.76 25.76V23.76C11.3283 23.76 11.0162 23.7233 10.8025 23.6699C10.5828 23.6149 10.5332 23.559 10.5471 23.5729L9.13289 24.9871ZM11.76 25.76C12.1077 25.76 12.4447 25.7455 12.7705 25.7159L12.5895 23.7241C12.3287 23.7478 12.0523 23.76 11.76 23.76V25.76ZM12.7705 25.7159C13.0964 25.6863 13.4118 25.6414 13.7161 25.5806L13.3239 23.6194C13.0948 23.6652 12.8502 23.7004 12.5895 23.7241L12.7705 25.7159ZM12.52 24.6V29H14.52V24.6H12.52ZM13.3556 28.0136C12.922 28.0859 12.4292 28.1358 11.8746 28.161L11.9654 30.159C12.5841 30.1308 13.158 30.0741 13.6844 29.9864L13.3556 28.0136ZM11.8746 28.161C11.3023 28.187 10.7441 28.2 10.2 28.2V30.2C10.7759 30.2 11.3643 30.1863 11.9654 30.159L11.8746 28.161ZM10.2 28.2C9.37047 28.2 8.5857 28.1372 7.8444 28.0136L7.5156 29.9864C8.3743 30.1295 9.26953 30.2 10.2 30.2V28.2ZM7.81664 28.0094C7.15479 27.9181 6.58428 27.7276 6.09206 27.4494L5.10794 29.1906C5.84239 29.6057 6.65854 29.8686 7.54336 29.9906L7.81664 28.0094ZM6.10873 27.4591C5.68887 27.211 5.34571 26.8556 5.07929 26.3637L3.32071 27.3163C3.74762 28.1044 4.3378 28.7357 5.09127 29.1809L6.10873 27.4591ZM5.07929 26.3637C4.83855 25.9193 4.68 25.2606 4.68 24.32H2.68C2.68 25.4594 2.86812 26.4807 3.32071 27.3163L5.07929 26.3637ZM4.68 24.32V12.12H2.68V24.32H4.68ZM3.68 11.12H0.24V13.12H3.68V11.12ZM1.24 12.12V8.32H-0.76V12.12H1.24ZM0.24 9.32H3.68V7.32H0.24V9.32ZM4.68 8.32V2.12H2.68V8.32H4.68ZM3.68 3.12H9.36V1.12H3.68V3.12ZM8.36 2.12V8.32H10.36V2.12H8.36ZM16.2225 8.32V7.32H15.2225V8.32H16.2225ZM21.6225 8.32H22.6225V7.32H21.6225V8.32ZM21.6225 12.16H20.6225V13.16H21.6225V12.16ZM21.7025 12.16V13.16H22.3692L22.6256 12.5446L21.7025 12.16ZM22.7825 10.4L23.5444 11.0476L23.5522 11.0385L23.5597 11.0292L22.7825 10.4ZM24.3425 9L24.8794 9.84366L24.8927 9.83515L24.9058 9.82623L24.3425 9ZM26.2225 8.08L26.5273 9.03242L26.5273 9.03242L26.2225 8.08ZM29.5425 7.96H30.5425V7.21176L29.8247 7.00063L29.5425 7.96ZM29.5425 13.24L29.3464 14.2206L30.5425 14.4598V13.24H29.5425ZM28.5825 13.12L28.4411 14.1099L28.476 14.1149L28.5113 14.1175L28.5825 13.12ZM24.8625 13.56L25.2963 14.461V14.461L24.8625 13.56ZM23.1025 15L22.2983 14.4056L22.2938 14.4118L23.1025 15ZM21.9025 29V30H22.9025V29H21.9025ZM16.2225 29H15.2225V30H16.2225V29ZM16.2225 9.32H21.6225V7.32H16.2225V9.32ZM20.6225 8.32V12.16H22.6225V8.32H20.6225ZM21.6225 13.16H21.7025V11.16H21.6225V13.16ZM22.6256 12.5446C22.8521 12.001 23.1574 11.5029 23.5444 11.0476L22.0206 9.75235C21.5009 10.3637 21.0863 11.039 20.7794 11.7754L22.6256 12.5446ZM23.5597 11.0292C23.9476 10.5501 24.3872 10.1569 24.8794 9.84366L23.8056 8.15634C23.1245 8.58978 22.5241 9.12986 22.0053 9.7708L23.5597 11.0292ZM24.9058 9.82623C25.414 9.47974 25.9538 9.21595 26.5273 9.03242L25.9177 7.12757C25.1579 7.37072 24.4443 7.72025 23.7792 8.17377L24.9058 9.82623ZM26.5273 9.03242C27.0926 8.85152 27.6829 8.76 28.3025 8.76V6.76C27.4821 6.76 26.6857 6.88182 25.9177 7.12758L26.5273 9.03242ZM28.3025 8.76C28.5589 8.76 28.8755 8.80619 29.2603 8.91936L29.8247 7.00063C29.3028 6.84715 28.7928 6.76 28.3025 6.76V8.76ZM28.5425 7.96V13.24H30.5425V7.96H28.5425ZM29.7386 12.2594C29.4187 12.1954 29.0546 12.1512 28.6537 12.1225L28.5113 14.1175C28.857 14.1422 29.133 14.1779 29.3464 14.2206L29.7386 12.2594ZM28.7239 12.1301C28.3078 12.0706 27.9004 12.04 27.5025 12.04V14.04C27.7979 14.04 28.1105 14.0627 28.4411 14.1099L28.7239 12.1301ZM27.5025 12.04C26.3558 12.04 25.3184 12.2306 24.4287 12.659L25.2963 14.461C25.8466 14.1961 26.5692 14.04 27.5025 14.04V12.04ZM24.4287 12.659C23.5694 13.0727 22.853 13.6552 22.2983 14.4056L23.9067 15.5944C24.2587 15.1182 24.7156 14.7406 25.2963 14.461L24.4287 12.659ZM22.2938 14.4118C21.7787 15.12 21.4217 15.9398 21.2087 16.8528L23.1563 17.3072C23.3167 16.6202 23.5729 16.0534 23.9112 15.5882L22.2938 14.4118ZM21.2087 16.8528C21.0024 17.7365 20.9025 18.6803 20.9025 19.68H22.9025C22.9025 18.813 22.9892 18.0235 23.1563 17.3072L21.2087 16.8528ZM20.9025 19.68V29H22.9025V19.68H20.9025ZM21.9025 28H16.2225V30H21.9025V28ZM17.2225 29V8.32H15.2225V29H17.2225ZM31.5294 14.68L30.5312 14.6201L30.4676 15.68H31.5294V14.68ZM32.5294 11.36L33.3614 11.9147L32.5294 11.36ZM34.7694 9.24L35.2764 10.1019L34.7694 9.24ZM37.8094 8.12L37.9965 9.10234L38.0054 9.10065L38.0142 9.09879L37.8094 8.12ZM44.4094 8L44.261 8.98894L44.2732 8.99076L44.2853 8.99228L44.4094 8ZM47.3294 8.84L46.8931 9.73981L46.8931 9.73981L47.3294 8.84ZM49.4894 10.64L48.6794 11.2265L48.6843 11.2333L48.6894 11.24L49.4894 10.64ZM50.4894 27.08L49.4971 27.204L50.4894 27.08ZM51.0494 29V30H52.8536L51.8974 28.47L51.0494 29ZM45.2894 29L44.3407 29.3162L44.5686 30H45.2894V29ZM45.0094 28.04L44.021 28.1921L44.028 28.2377L44.0392 28.2825L45.0094 28.04ZM44.8894 27L45.8864 26.9233L45.7164 24.7134L44.1721 26.3032L44.8894 27ZM41.6894 28.96L41.9805 29.9167L41.6894 28.96ZM35.1694 29.16L35.4401 28.1973L35.1694 29.16ZM32.9294 28.04L32.3087 28.824L32.9294 28.04ZM31.4094 26.12L30.4969 26.5291L30.5027 26.542L30.5088 26.5547L31.4094 26.12ZM31.4894 20.48L30.6137 19.9969L30.6079 20.0078L31.4894 20.48ZM33.0894 18.64L32.5271 17.8131L32.5192 17.8184L32.5114 17.824L33.0894 18.64ZM35.3294 17.64L35.5793 18.6083L35.5897 18.6056L35.6001 18.6026L35.3294 17.64ZM37.8894 17.08L38.0438 18.068L37.8894 17.08ZM40.4094 16.76L40.3131 15.7646H40.313L40.4094 16.76ZM42.6094 16.4L42.3668 15.4299V15.4299L42.6094 16.4ZM44.1294 15.72L44.7472 16.5063L44.764 16.4931L44.7802 16.4793L44.1294 15.72ZM44.6494 14.36H43.6494V14.3827L43.6504 14.4054L44.6494 14.36ZM44.3294 12.92L43.4349 13.3672L43.4546 13.4066L43.4777 13.4441L44.3294 12.92ZM43.5294 12.08L42.9747 12.9121L43.0138 12.9382L43.0553 12.9605L43.5294 12.08ZM42.3694 11.68L42.1851 12.6629L42.2186 12.6692L42.2525 12.6731L42.3694 11.68ZM37.2094 14.68V15.68H38.1187L38.2049 14.7748L37.2094 14.68ZM44.6494 18.88H45.6494V16.6532L43.985 18.1326L44.6494 18.88ZM43.7294 19.4L44.0235 20.3558L44.0447 20.3492L44.0657 20.3417L43.7294 19.4ZM42.5694 19.68L42.3851 18.6971L42.3733 18.6994L42.5694 19.68ZM41.2894 19.88L41.1725 18.8868L41.2894 19.88ZM39.9294 20.08L39.7556 19.0952L39.7451 19.0971L39.9294 20.08ZM38.6494 20.4L38.3511 19.4455L38.3421 19.4483L38.3331 19.4513L38.6494 20.4ZM37.5694 20.96L38.1575 21.7687L38.1635 21.7644L38.1694 21.76L37.5694 20.96ZM36.8494 24.4L35.9689 24.8741L36.8494 24.4ZM37.6094 25.24L37.0547 26.072L37.0796 26.0887L37.1055 26.1038L37.6094 25.24ZM38.7294 25.64L38.9137 24.6571L38.7294 25.64ZM42.6494 25.2L42.1294 24.3458L42.6494 25.2ZM44.0094 23.88L44.8748 24.381L44.8803 24.3715L44.8856 24.3619L44.0094 23.88ZM44.5294 22.28L43.5404 22.1317L43.5368 22.156L43.5343 22.1805L44.5294 22.28ZM32.5276 14.7399C32.5997 13.5375 32.8956 12.6134 33.3614 11.9147L31.6973 10.8053C30.9898 11.8666 30.619 13.1558 30.5312 14.6201L32.5276 14.7399ZM33.3614 11.9147C33.8648 11.1596 34.5006 10.5583 35.2764 10.1019L34.2624 8.37807C33.2248 8.98839 32.3673 9.80037 31.6973 10.8053L33.3614 11.9147ZM35.2764 10.1019C36.0761 9.63149 36.9798 9.296 37.9965 9.10234L37.6223 7.13766C36.399 7.37067 35.2759 7.78184 34.2624 8.37807L35.2764 10.1019ZM38.0142 9.09879C39.095 8.87259 40.173 8.76 41.2494 8.76V6.76C40.0324 6.76 38.8171 6.88741 37.6045 7.14121L38.0142 9.09879ZM41.2494 8.76C42.2379 8.76 43.2417 8.83603 44.261 8.98894L44.5577 7.01106C43.4438 6.84397 42.3408 6.76 41.2494 6.76V8.76ZM44.2853 8.99228C45.2543 9.11339 46.1207 9.36531 46.8931 9.73981L47.7657 7.94019C46.7781 7.46136 45.6978 7.15327 44.5334 7.00772L44.2853 8.99228ZM46.8931 9.73981C47.6284 10.0963 48.2186 10.5902 48.6794 11.2265L50.2993 10.0535C49.6401 9.14315 48.7904 8.43703 47.7656 7.94019L46.8931 9.73981ZM48.6894 11.24C49.0815 11.7628 49.3294 12.5296 49.3294 13.64H51.3294C51.3294 12.2438 51.0173 11.0105 50.2894 10.04L48.6894 11.24ZM49.3294 13.64V24.4H51.3294V13.64H49.3294ZM49.3294 24.4C49.3294 25.3713 49.3849 26.3062 49.4971 27.204L51.4817 26.956C51.3805 26.1471 51.3294 25.2953 51.3294 24.4H49.3294ZM49.4971 27.204C49.6107 28.1132 49.8214 28.9221 50.2014 29.53L51.8974 28.47C51.744 28.2246 51.5813 27.7534 51.4817 26.956L49.4971 27.204ZM51.0494 28H45.2894V30H51.0494V28ZM46.2381 28.6838C46.1393 28.3875 46.0532 28.0921 45.9795 27.7975L44.0392 28.2825C44.1256 28.6279 44.2261 28.9725 44.3407 29.3162L46.2381 28.6838ZM45.9977 27.8879C45.9482 27.5661 45.9111 27.2445 45.8864 26.9233L43.8923 27.0767C43.9209 27.4488 43.9639 27.8206 44.021 28.1921L45.9977 27.8879ZM44.1721 26.3032C43.3814 27.1172 42.4607 27.68 41.3982 28.0033L41.9805 29.9167C43.3714 29.4934 44.584 28.7495 45.6067 27.6968L44.1721 26.3032ZM41.3982 28.0033C40.2658 28.348 39.1105 28.52 37.9294 28.52V30.52C39.3082 30.52 40.6597 30.3187 41.9805 29.9167L41.3982 28.0033ZM37.9294 28.52C37.024 28.52 36.196 28.41 35.4401 28.1973L34.8986 30.1227C35.8494 30.39 36.8614 30.52 37.9294 30.52V28.52ZM35.4401 28.1973C34.7031 27.9901 34.0778 27.6737 33.5501 27.256L32.3087 28.824C33.061 29.4196 33.929 29.8499 34.8986 30.1227L35.4401 28.1973ZM33.5501 27.256C33.0347 26.848 32.6211 26.3298 32.3099 25.6852L30.5088 26.5547C30.9443 27.4569 31.544 28.2187 32.3087 28.824L33.5501 27.256ZM32.3219 25.7109C32.0458 25.095 31.8894 24.321 31.8894 23.36H29.8894C29.8894 24.5324 30.0797 25.5983 30.4969 26.5291L32.3219 25.7109ZM31.8894 23.36C31.8894 22.2913 32.0728 21.5085 32.3709 20.9522L30.6079 20.0078C30.1059 20.9448 29.8894 22.0821 29.8894 23.36H31.8894ZM32.365 20.9631C32.728 20.305 33.1651 19.8118 33.6674 19.456L32.5114 17.824C31.7336 18.3749 31.104 19.1084 30.6138 19.9969L32.365 20.9631ZM33.6517 19.4669C34.2176 19.0821 34.8575 18.7945 35.5793 18.6083L35.0795 16.6717C34.148 16.9121 33.2945 17.2912 32.5271 17.8131L33.6517 19.4669ZM35.6001 18.6026C36.4162 18.3731 37.2307 18.1951 38.0438 18.068L37.735 16.092C36.8414 16.2316 35.9492 16.4269 35.0586 16.6773L35.6001 18.6026ZM38.0438 18.068C38.8786 17.9376 39.6992 17.8334 40.5057 17.7553L40.313 15.7646C39.4662 15.8466 38.6068 15.9558 37.735 16.092L38.0438 18.068ZM40.5057 17.7553C41.3697 17.6717 42.1534 17.5448 42.8519 17.3701L42.3668 15.4299C41.7853 15.5752 41.1024 15.6883 40.3131 15.7646L40.5057 17.7553ZM42.8519 17.3701C43.5788 17.1884 44.2288 16.9136 44.7472 16.5063L43.5116 14.9337C43.2832 15.1131 42.92 15.2916 42.3668 15.4299L42.8519 17.3701ZM44.7802 16.4793C45.4337 15.9191 45.686 15.142 45.6483 14.3146L43.6504 14.4054C43.6661 14.7513 43.5717 14.8809 43.4786 14.9607L44.7802 16.4793ZM45.6494 14.36C45.6494 13.6488 45.5287 12.9608 45.181 12.3959L43.4777 13.4441C43.5568 13.5725 43.6494 13.8446 43.6494 14.36H45.6494ZM45.2238 12.4728C44.9509 11.9269 44.5427 11.4899 44.0035 11.1995L43.0553 12.9605C43.2093 13.0434 43.3346 13.1664 43.4349 13.3672L45.2238 12.4728ZM44.0841 11.2479C43.6105 10.9322 43.0671 10.7552 42.4862 10.6868L42.2525 12.6731C42.5784 12.7115 42.8083 12.8011 42.9747 12.9121L44.0841 11.2479ZM42.5537 10.6971C42.0572 10.604 41.5279 10.56 40.9694 10.56V12.56C41.4242 12.56 41.8283 12.596 42.1851 12.6629L42.5537 10.6971ZM40.9694 10.56C39.7175 10.56 38.5996 10.8273 37.7294 11.48L38.9294 13.08C39.3391 12.7727 39.9813 12.56 40.9694 12.56V10.56ZM37.7294 11.48C36.7847 12.1885 36.3361 13.3021 36.2139 14.5852L38.2049 14.7748C38.296 13.8179 38.5941 13.3315 38.9294 13.08L37.7294 11.48ZM37.2094 13.68H31.5294V15.68H37.2094V13.68ZM43.985 18.1326C43.8605 18.2433 43.673 18.3583 43.393 18.4583L44.0657 20.3417C44.5324 20.1751 44.9583 19.9434 45.3137 19.6274L43.985 18.1326ZM43.4353 18.4442C43.1309 18.5379 42.7816 18.6228 42.3851 18.6971L42.7537 20.6629C43.2105 20.5772 43.6345 20.4754 44.0235 20.3558L43.4353 18.4442ZM42.3733 18.6994C42.0024 18.7736 41.6024 18.8363 41.1725 18.8868L41.4062 20.8731C41.8831 20.8171 42.3364 20.7464 42.7655 20.6606L42.3733 18.6994ZM41.1725 18.8868C40.7 18.9424 40.2277 19.0119 39.7556 19.0952L40.1032 21.0648C40.5378 20.9881 40.9721 20.9242 41.4062 20.8731L41.1725 18.8868ZM39.7451 19.0971C39.2788 19.1846 38.8141 19.3008 38.3511 19.4455L38.9477 21.3545C39.338 21.2325 39.7266 21.1354 40.1137 21.0629L39.7451 19.0971ZM38.3331 19.4513C37.8367 19.6168 37.3799 19.8521 36.9694 20.16L38.1694 21.76C38.3988 21.5879 38.662 21.4499 38.9656 21.3487L38.3331 19.4513ZM36.9812 20.1513C36.5565 20.4602 36.2205 20.8587 35.9689 21.3259L37.7298 22.2741C37.8516 22.048 37.9956 21.8865 38.1575 21.7687L36.9812 20.1513ZM35.9689 21.3259C35.6809 21.8607 35.5694 22.4773 35.5694 23.12H37.5694C37.5694 22.6961 37.6445 22.4326 37.7298 22.2741L35.9689 21.3259ZM35.5694 23.12C35.5694 23.746 35.6845 24.3459 35.9689 24.8741L37.7298 23.9259C37.641 23.7608 37.5694 23.5074 37.5694 23.12H35.5694ZM35.9689 24.8741C36.2313 25.3614 36.5951 25.7657 37.0547 26.072L38.1641 24.408C37.9837 24.2877 37.8408 24.1319 37.7298 23.9259L35.9689 24.8741ZM37.1055 26.1038C37.5398 26.3571 38.0248 26.5253 38.5451 26.6229L38.9137 24.6571C38.5806 24.5947 38.319 24.4962 38.1132 24.3762L37.1055 26.1038ZM38.5451 26.6229C39.0351 26.7148 39.5369 26.76 40.0494 26.76V24.76C39.6551 24.76 39.2769 24.7252 38.9137 24.6571L38.5451 26.6229ZM40.0494 26.76C41.2588 26.76 42.3348 26.5622 43.1693 26.0542L42.1294 24.3458C41.7373 24.5845 41.08 24.76 40.0494 24.76V26.76ZM43.1693 26.0542C43.8935 25.6134 44.4807 25.0618 44.8748 24.381L43.1439 23.379C42.9514 23.7116 42.6319 24.04 42.1294 24.3458L43.1693 26.0542ZM44.8856 24.3619C45.2351 23.7264 45.456 23.064 45.5244 22.3795L43.5343 22.1805C43.4961 22.5626 43.3703 22.9669 43.1332 23.3981L44.8856 24.3619ZM45.5183 22.4283C45.6014 21.8743 45.6494 21.3918 45.6494 21H43.6494C43.6494 21.2481 43.6173 21.6191 43.5404 22.1317L45.5183 22.4283ZM45.6494 21V18.88H43.6494V21H45.6494ZM60.5781 5.12V6.12H61.5781V5.12H60.5781ZM54.8981 5.12H53.8981V6.12H54.8981V5.12ZM54.8981 0.439999V-0.560001H53.8981V0.439999H54.8981ZM60.5781 0.439999H61.5781V-0.560001H60.5781V0.439999ZM54.8981 8.32V7.32H53.8981V8.32H54.8981ZM60.5781 8.32H61.5781V7.32H60.5781V8.32ZM60.5781 29V30H61.5781V29H60.5781ZM54.8981 29H53.8981V30H54.8981V29ZM60.5781 4.12H54.8981V6.12H60.5781V4.12ZM55.8981 5.12V0.439999H53.8981V5.12H55.8981ZM54.8981 1.44H60.5781V-0.560001H54.8981V1.44ZM59.5781 0.439999V5.12H61.5781V0.439999H59.5781ZM54.8981 9.32H60.5781V7.32H54.8981V9.32ZM59.5781 8.32V29H61.5781V8.32H59.5781ZM60.5781 28H54.8981V30H60.5781V28ZM55.8981 29V8.32H53.8981V29H55.8981ZM65.0506 8.32V7.32H64.0506V8.32H65.0506ZM70.4506 8.32H71.4506V7.32H70.4506V8.32ZM70.4506 11.2H69.4506V12.2H70.4506V11.2ZM70.5706 11.2V12.2H71.1368L71.4281 11.7145L70.5706 11.2ZM73.3706 8.6L73.7924 9.50672L73.8009 9.50272L73.8095 9.49857L73.3706 8.6ZM80.6106 8.4L80.2045 9.31381L80.2196 9.32052L80.2349 9.32674L80.6106 8.4ZM82.9306 10.12L82.1306 10.72L82.1359 10.727L82.1413 10.7339L82.9306 10.12ZM84.0906 12.8L83.11 12.9961L83.1129 13.0105L83.1162 13.0249L84.0906 12.8ZM84.4506 29V30H85.4506V29H84.4506ZM78.7706 29H77.7706V30H78.7706V29ZM77.9706 13.52L77.1226 14.05L77.1264 14.0561L77.1303 14.0621L77.9706 13.52ZM71.7706 13.64L72.5651 14.2475L72.5734 14.2363L71.7706 13.64ZM70.7306 29V30H71.7306V29H70.7306ZM65.0506 29H64.0506V30H65.0506V29ZM65.0506 9.32H70.4506V7.32H65.0506V9.32ZM69.4506 8.32V11.2H71.4506V8.32H69.4506ZM70.4506 12.2H70.5706V10.2H70.4506V12.2ZM71.4281 11.7145C72.0567 10.6668 72.846 9.94689 73.7924 9.50672L72.9489 7.69328C71.6019 8.31977 70.5245 9.33318 69.7131 10.6855L71.4281 11.7145ZM73.8095 9.49857C74.8283 9.00098 75.8523 8.76 76.8906 8.76V6.76C75.529 6.76 74.2062 7.07902 72.9318 7.70143L73.8095 9.49857ZM76.8906 8.76C78.3283 8.76 79.4162 8.96345 80.2045 9.31381L81.0168 7.48619C79.8851 6.98321 78.4929 6.76 76.8906 6.76V8.76ZM80.2349 9.32674C81.0773 9.66823 81.6944 10.1384 82.1306 10.72L83.7306 9.52C83.0469 8.60831 82.1173 7.93177 80.9863 7.47326L80.2349 9.32674ZM82.1413 10.7339C82.5893 11.31 82.9213 12.0526 83.11 12.9961L85.0712 12.6039C84.8332 11.4141 84.392 10.37 83.72 9.50606L82.1413 10.7339ZM83.1162 13.0249C83.3362 13.9782 83.4506 15.0612 83.4506 16.28H85.4506C85.4506 14.9388 85.325 13.7018 85.065 12.5751L83.1162 13.0249ZM83.4506 16.28V29H85.4506V16.28H83.4506ZM84.4506 28H78.7706V30H84.4506V28ZM79.7706 29V17.32H77.7706V29H79.7706ZM79.7706 17.32C79.7706 15.5454 79.5 14.0459 78.8109 12.9779L77.1303 14.0621C77.5079 14.6474 77.7706 15.6813 77.7706 17.32H79.7706ZM78.8186 12.99C78.0408 11.7455 76.7002 11.24 75.1306 11.24V13.24C76.2811 13.24 76.8338 13.5878 77.1226 14.05L78.8186 12.99ZM75.1306 11.24C73.3812 11.24 71.9087 11.7772 70.9679 13.0437L72.5734 14.2363C73.0192 13.6361 73.7867 13.24 75.1306 13.24V11.24ZM70.9763 13.0325C70.0766 14.209 69.7306 15.9956 69.7306 18.16H71.7306C71.7306 16.1111 72.0779 14.8844 72.565 14.2474L70.9763 13.0325ZM69.7306 18.16V29H71.7306V18.16H69.7306ZM70.7306 28H65.0506V30H70.7306V28ZM66.0506 29V8.32H64.0506V29H66.0506ZM94.6016 5.12V6.12H95.6016V5.12H94.6016ZM88.9216 5.12H87.9216V6.12H88.9216V5.12ZM88.9216 0.439999V-0.560001H87.9216V0.439999H88.9216ZM94.6016 0.439999H95.6016V-0.560001H94.6016V0.439999ZM88.9216 8.32V7.32H87.9216V8.32H88.9216ZM94.6016 8.32H95.6016V7.32H94.6016V8.32ZM94.6016 29V30H95.6016V29H94.6016ZM88.9216 29H87.9216V30H88.9216V29ZM94.6016 4.12H88.9216V6.12H94.6016V4.12ZM89.9216 5.12V0.439999H87.9216V5.12H89.9216ZM88.9216 1.44H94.6016V-0.560001H88.9216V1.44ZM93.6016 0.439999V5.12H95.6016V0.439999H93.6016ZM88.9216 9.32H94.6016V7.32H88.9216V9.32ZM93.6016 8.32V29H95.6016V8.32H93.6016ZM94.6016 28H88.9216V30H94.6016V28ZM89.9216 29V8.32H87.9216V29H89.9216ZM99.0741 8.32V7.32H98.0741V8.32H99.0741ZM104.474 8.32H105.474V7.32H104.474V8.32ZM104.474 11.2H103.474V12.2H104.474V11.2ZM104.594 11.2V12.2H105.16L105.452 11.7145L104.594 11.2ZM107.394 8.6L107.816 9.50672L107.824 9.50272L107.833 9.49857L107.394 8.6ZM114.634 8.4L114.228 9.31381L114.243 9.32052L114.258 9.32674L114.634 8.4ZM116.954 10.12L116.154 10.72L116.159 10.727L116.165 10.7339L116.954 10.12ZM118.114 12.8L117.133 12.9961L117.136 13.0105L117.14 13.0249L118.114 12.8ZM118.474 29V30H119.474V29H118.474ZM112.794 29H111.794V30H112.794V29ZM111.994 13.52L111.146 14.05L111.15 14.0561L111.154 14.0621L111.994 13.52ZM105.794 13.64L106.589 14.2475L106.597 14.2363L105.794 13.64ZM104.754 29V30H105.754V29H104.754ZM99.0741 29H98.0741V30H99.0741V29ZM99.0741 9.32H104.474V7.32H99.0741V9.32ZM103.474 8.32V11.2H105.474V8.32H103.474ZM104.474 12.2H104.594V10.2H104.474V12.2ZM105.452 11.7145C106.08 10.6668 106.869 9.94689 107.816 9.50672L106.972 7.69328C105.625 8.31977 104.548 9.33318 103.737 10.6855L105.452 11.7145ZM107.833 9.49857C108.852 9.00098 109.876 8.76 110.914 8.76V6.76C109.552 6.76 108.23 7.07902 106.955 7.70143L107.833 9.49857ZM110.914 8.76C112.352 8.76 113.44 8.96345 114.228 9.31381L115.04 7.48619C113.909 6.98321 112.516 6.76 110.914 6.76V8.76ZM114.258 9.32674C115.101 9.66823 115.718 10.1384 116.154 10.72L117.754 9.52C117.07 8.60831 116.141 7.93177 115.01 7.47326L114.258 9.32674ZM116.165 10.7339C116.613 11.31 116.945 12.0526 117.133 12.9961L119.095 12.6039C118.857 11.4141 118.415 10.37 117.743 9.50606L116.165 10.7339ZM117.14 13.0249C117.36 13.9782 117.474 15.0612 117.474 16.28H119.474C119.474 14.9388 119.348 13.7018 119.088 12.5751L117.14 13.0249ZM117.474 16.28V29H119.474V16.28H117.474ZM118.474 28H112.794V30H118.474V28ZM113.794 29V17.32H111.794V29H113.794ZM113.794 17.32C113.794 15.5454 113.523 14.0459 112.834 12.9779L111.154 14.0621C111.531 14.6474 111.794 15.6813 111.794 17.32H113.794ZM112.842 12.99C112.064 11.7455 110.724 11.24 109.154 11.24V13.24C110.305 13.24 110.857 13.5878 111.146 14.05L112.842 12.99ZM109.154 11.24C107.405 11.24 105.932 11.7772 104.991 13.0437L106.597 14.2363C107.043 13.6361 107.81 13.24 109.154 13.24V11.24ZM105 13.0325C104.1 14.209 103.754 15.9956 103.754 18.16H105.754C105.754 16.1111 106.101 14.8844 106.588 14.2474L105 13.0325ZM103.754 18.16V29H105.754V18.16H103.754ZM104.754 28H99.0741V30H104.754V28ZM100.074 29V8.32H98.0741V29H100.074ZM134.545 23.64L135.008 24.5266L134.545 23.64ZM136.065 22.36L135.265 21.76L136.065 22.36ZM136.945 20.56L135.989 20.2659L135.985 20.2781L135.982 20.2904L136.945 20.56ZM137.025 16L136.046 16.2026L136.047 16.2095L137.025 16ZM134.745 12.56L134.253 13.4306L134.745 12.56ZM130.345 12.52L129.866 11.6421L129.857 11.6468L129.849 11.6518L130.345 12.52ZM128.905 13.84L128.091 13.2587L128.086 13.2665L128.905 13.84ZM128.065 15.72L127.097 15.469L127.094 15.482L127.091 15.4951L128.065 15.72ZM128.025 20.16L127.041 20.3358L127.044 20.3564L127.049 20.3769L128.025 20.16ZM128.785 22.12L127.924 22.6287L127.932 22.6429L127.941 22.6569L128.785 22.12ZM130.225 23.56L129.688 24.4037L130.225 23.56ZM142.305 30.52L141.329 30.3005L141.327 30.3122L141.324 30.3239L142.305 30.52ZM140.865 33.48L140.093 32.8443L140.089 32.8498L140.084 32.8553L140.865 33.48ZM128.825 36.4L129.068 35.4299L129.059 35.4277L129.05 35.4256L128.825 36.4ZM125.945 35.24L125.415 36.0881L125.427 36.0952L125.945 35.24ZM123.785 33.16L122.957 33.7209L122.961 33.7265L123.785 33.16ZM122.825 30.16V29.16H121.754L121.827 30.228L122.825 30.16ZM128.465 30.16L129.435 29.9175L129.246 29.16H128.465V30.16ZM130.025 32.36L130.508 31.4844L130.496 31.4779L130.484 31.4718L130.025 32.36ZM136.185 31.56L135.396 30.9461L135.39 30.953L135.385 30.96L136.185 31.56ZM137.265 27.92H136.265V27.9291L136.265 27.9382L137.265 27.92ZM137.265 25.2H138.265V24.2H137.265V25.2ZM137.185 25.2V24.2H136.599L136.313 24.7108L137.185 25.2ZM134.545 27.64L134.957 28.5512L134.967 28.5467L134.545 27.64ZM126.985 27.6L126.538 28.4944L126.546 28.4987L126.555 28.5029L126.985 27.6ZM124.225 25.36L123.425 25.9601L123.433 25.9708L124.225 25.36ZM122.625 22.04L121.655 22.2825L121.658 22.2946L121.661 22.3066L122.625 22.04ZM122.705 14.16L121.752 13.8559L121.748 13.8688L122.705 14.16ZM124.425 10.88L125.206 11.5048L125.214 11.4939L124.425 10.88ZM127.185 8.6L126.738 7.70553L126.729 7.70996L127.185 8.6ZM134.585 8.52L134.138 9.41447L134.147 9.41899L134.585 8.52ZM137.185 11.08L136.319 11.5803L136.608 12.08H137.185V11.08ZM137.265 11.08V12.08H138.265V11.08H137.265ZM137.265 8.32V7.32H136.265V8.32H137.265ZM142.665 8.32H143.665V7.32H142.665V8.32ZM132.425 25.12C133.361 25.12 134.231 24.932 135.008 24.5266L134.082 22.7534C133.633 22.988 133.089 23.12 132.425 23.12V25.12ZM135.008 24.5266C135.748 24.1401 136.372 23.6174 136.865 22.96L135.265 21.76C134.958 22.1692 134.568 22.4999 134.082 22.7534L135.008 24.5266ZM136.865 22.96C137.342 22.3238 137.689 21.6109 137.908 20.8296L135.982 20.2904C135.827 20.8424 135.588 21.3295 135.265 21.76L136.865 22.96ZM137.901 20.8541C138.144 20.0627 138.265 19.2434 138.265 18.4H136.265C136.265 19.0499 136.172 19.6706 135.989 20.2659L137.901 20.8541ZM138.265 18.4C138.265 17.4843 138.179 16.6135 138.003 15.7905L136.047 16.2095C136.191 16.8798 136.265 17.609 136.265 18.4H138.265ZM138.004 15.7974C137.823 14.9213 137.515 14.125 137.069 13.4231L135.381 14.4969C135.681 14.9684 135.907 15.532 136.046 16.2026L138.004 15.7974ZM137.069 13.4231C136.606 12.6962 135.991 12.1157 135.237 11.6894L134.253 13.4306C134.725 13.6976 135.097 14.0505 135.381 14.4969L137.069 13.4231ZM135.237 11.6894C134.433 11.2347 133.477 11.04 132.425 11.04V13.04C133.24 13.04 133.831 13.1919 134.253 13.4306L135.237 11.6894ZM132.425 11.04C131.491 11.04 130.626 11.2276 129.866 11.6421L130.824 13.3979C131.237 13.1724 131.759 13.04 132.425 13.04V11.04ZM129.849 11.6518C129.155 12.0481 128.569 12.5893 128.091 13.2588L129.719 14.4212C130.041 13.9707 130.415 13.6319 130.841 13.3882L129.849 11.6518ZM128.086 13.2665C127.635 13.9105 127.309 14.6498 127.097 15.469L129.033 15.971C129.194 15.3502 129.428 14.8362 129.724 14.4135L128.086 13.2665ZM127.091 15.4951C126.912 16.2683 126.825 17.0775 126.825 17.92H128.825C128.825 17.2159 128.898 16.5584 129.039 15.9449L127.091 15.4951ZM126.825 17.92C126.825 18.7265 126.897 19.532 127.041 20.3358L129.009 19.9842C128.886 19.2946 128.825 18.6068 128.825 17.92H126.825ZM127.049 20.3769C127.23 21.1912 127.52 21.9443 127.924 22.6287L129.646 21.6113C129.357 21.1224 129.14 20.5688 129.001 19.9431L127.049 20.3769ZM127.941 22.6569C128.393 23.367 128.978 23.9517 129.688 24.4037L130.762 22.7163C130.299 22.4216 129.923 22.0463 129.629 21.5831L127.941 22.6569ZM129.688 24.4037C130.473 24.903 131.405 25.12 132.425 25.12V23.12C131.685 23.12 131.15 22.9636 130.762 22.7163L129.688 24.4037ZM141.665 27.68C141.665 28.4136 141.558 29.2843 141.329 30.3005L143.281 30.7395C143.532 29.6224 143.665 28.5998 143.665 27.68H141.665ZM141.324 30.3239C141.146 31.2164 140.744 32.0543 140.093 32.8443L141.637 34.1157C142.48 33.0923 143.037 31.957 143.286 30.7161L141.324 30.3239ZM140.084 32.8553C139.461 33.6344 138.524 34.3354 137.212 34.929L138.038 36.751C139.553 36.0646 140.776 35.1923 141.646 34.1047L140.084 32.8553ZM137.212 34.929C135.979 35.4876 134.244 35.8 131.945 35.8V37.8C134.393 37.8 136.444 37.4724 138.038 36.751L137.212 34.929ZM131.945 35.8C131.02 35.8 130.062 35.6784 129.068 35.4299L128.582 37.3701C129.722 37.655 130.843 37.8 131.945 37.8V35.8ZM129.05 35.4256C128.109 35.2086 127.249 34.861 126.463 34.3848L125.427 36.0952C126.401 36.6856 127.461 37.1114 128.6 37.3744L129.05 35.4256ZM126.475 34.392C125.741 33.9335 125.12 33.3372 124.609 32.5935L122.961 33.7265C123.623 34.6895 124.442 35.4799 125.415 36.088L126.475 34.392ZM124.613 32.5992C124.168 31.943 123.893 31.1205 123.823 30.092L121.827 30.228C121.917 31.5461 122.282 32.7236 122.957 33.7208L124.613 32.5992ZM122.825 31.16H128.465V29.16H122.825V31.16ZM127.495 30.4025C127.812 31.6691 128.473 32.6831 129.566 33.2482L130.484 31.4718C130.03 31.2369 129.652 30.7842 129.435 29.9175L127.495 30.4025ZM129.542 33.2356C130.484 33.7552 131.548 34 132.705 34V32C131.835 32 131.113 31.8181 130.508 31.4844L129.542 33.2356ZM132.705 34C134.506 34 136.017 33.4507 136.985 32.16L135.385 30.96C134.913 31.5893 134.104 32 132.705 32V34ZM136.974 32.1739C137.889 30.9984 138.295 29.5482 138.265 27.9018L136.265 27.9382C136.289 29.2251 135.975 30.2016 135.396 30.9461L136.974 32.1739ZM138.265 27.92V25.2H136.265V27.92H138.265ZM137.265 24.2H137.185V26.2H137.265V24.2ZM136.313 24.7108C135.803 25.6194 135.082 26.2876 134.123 26.7333L134.967 28.5467C136.302 27.9258 137.34 26.9673 138.057 25.6893L136.313 24.7108ZM134.133 26.7289C133.145 27.1758 132.099 27.4 130.985 27.4V29.4C132.378 29.4 133.705 29.1175 134.957 28.5511L134.133 26.7289ZM130.985 27.4C129.551 27.4 128.372 27.1527 127.415 26.6971L126.555 28.5029C127.838 29.1139 129.325 29.4 130.985 29.4V27.4ZM127.432 26.7056C126.438 26.2087 125.639 25.5559 125.017 24.7492L123.433 25.9708C124.251 27.0308 125.292 27.8713 126.538 28.4944L127.432 26.7056ZM125.025 24.76C124.386 23.908 123.905 22.9165 123.589 21.7734L121.661 22.3066C122.038 23.6702 122.624 24.892 123.425 25.96L125.025 24.76ZM123.595 21.7975C123.296 20.6022 123.145 19.3374 123.145 18H121.145C121.145 19.4893 121.314 20.9178 121.655 22.2825L123.595 21.7975ZM123.145 18C123.145 16.7614 123.318 15.5797 123.662 14.4512L121.748 13.8688C121.345 15.1936 121.145 16.572 121.145 18H123.145ZM123.658 14.464C124.024 13.3155 124.543 12.3334 125.206 11.5047L123.644 10.2553C122.814 11.2933 122.186 12.4979 121.752 13.856L123.658 14.464ZM125.214 11.4939C125.87 10.6504 126.676 9.98416 127.641 9.49004L126.729 7.70996C125.507 8.33584 124.473 9.18959 123.636 10.2661L125.214 11.4939ZM127.632 9.49442C128.594 9.01359 129.717 8.76 131.025 8.76V6.76C129.453 6.76 128.016 7.06641 126.738 7.70557L127.632 9.49442ZM131.025 8.76C132.261 8.76 133.288 8.98976 134.138 9.41443L135.032 7.62557C133.855 7.03691 132.509 6.76 131.025 6.76V8.76ZM134.147 9.41899C134.975 9.82231 135.705 10.5181 136.319 11.5803L138.051 10.5797C137.278 9.24188 136.275 8.23103 135.023 7.62101L134.147 9.41899ZM137.185 12.08H137.265V10.08H137.185V12.08ZM138.265 11.08V8.32H136.265V11.08H138.265ZM137.265 9.32H142.665V7.32H137.265V9.32ZM141.665 8.32V27.68H143.665V8.32H141.665Z" fill="#0950A0" mask="url(#path-1-outside-1_0_63)"/>
</svg>
